<!DOCTYPE svg PUBLIC "-//W3C//DTD SVG 1.1//EN" "http://www.w3.org/Graphics/SVG/1.1/DTD/svg11.dtd">
<!-- Uploaded to: SVG Repo, www.svgrepo.com, Transformed by: SVG Repo Mixer Tools -->
<svg fill="#8accbb" version="1.1" id="Capa_1" xmlns="http://www.w3.org/2000/svg" xmlns:xlink="http://www.w3.org/1999/xlink" width="800px" height="800px" viewBox="0 0 476.91 476.909" xml:space="preserve" stroke="#8accbb">
<g id="SVGRepo_bgCarrier" stroke-width="0"/>
<g id="SVGRepo_tracerCarrier" stroke-linecap="round" stroke-linejoin="round"/>
<g id="SVGRepo_iconCarrier"> <g> <g> <path d="M62.802,142.287h121.682c4.45,0,10.95-3.805,13.32-7.999l24.816-41.066H62.802C28.12,93.222,0,121.342,0,156.026v20.779 C13.266,156.086,36.425,142.287,62.802,142.287z"/> <path d="M414.105,67.708H266.913c-8.681,0-19.151,6.125-23.399,13.685l-7.147,11.828l-28.489,47.157 c-4.246,7.558-14.719,13.684-23.393,13.684H62.802C28.12,154.062,0,182.183,0,216.865v115.794v13.737 c0,34.685,28.12,62.805,62.802,62.805h351.303c34.685,0,62.805-28.12,62.805-62.805v-13.737V156.026v-25.515 C476.91,95.829,448.79,67.708,414.105,67.708z M155.45,245.138h52.638l16.268-50.063c7.787-23.962,20.4-23.962,28.19,0 l16.267,50.063h52.638c25.194,0,29.086,11.998,8.712,26.801l-42.587,30.945l16.266,50.062 c7.783,23.956-2.428,31.378-22.806,16.574l-42.579-30.941l-42.587,30.941c-20.382,14.804-30.593,7.382-22.808-16.574 l16.268-50.062l-42.591-30.945C126.368,257.136,130.259,245.138,155.45,245.138z"/> </g> </g> </g>
</svg>